<svg xmlns="http://www.w3.org/2000/svg" viewBox="0 0 73.125 54">
  <defs>
    <style>
      .cls-1 {
        fill: none;
        stroke: #23a6de;
        stroke-linejoin: round;
        stroke-miterlimit: 10;
        stroke-width: 3px;
      }
    </style>
  </defs>
  <g id="Games_Entertainment_Cycling" data-name="Games &amp; Entertainment_Cycling" transform="translate(-1 -7.5)">
    <g id="Group_64" data-name="Group 64" transform="translate(2.5 9)">
      <path id="Path_234" data-name="Path 234" class="cls-1" d="M39.13,21.874S27.35,23.4,27.212,27.695s7.761,5.682,7.761,12.473-6.1,13.027-6.1,13.027,1.94-10.948-4.712-15.8-12.2-9.84-8.315-18.016S34.28,8.293,39.962,12.727,39.13,21.874,39.13,21.874Z" transform="translate(4.663 -8.015)"/>
      <path id="Path_235" data-name="Path 235" class="cls-1" d="M35.141,16.478l-4.989,3.6s3.6,8.592,17.462,5.821C47.614,25.9,36.943,22.16,35.141,16.478Z" transform="translate(13.918 -4.56)"/>
      <circle id="Ellipse_54" data-name="Ellipse 54" class="cls-1" cx="5.266" cy="5.266" r="5.266" transform="translate(47.951)"/>
      <ellipse id="Ellipse_55" data-name="Ellipse 55" class="cls-1" cx="13.304" cy="13.304" rx="13.304" ry="13.304" transform="translate(43.516 24.391)"/>
      <ellipse id="Ellipse_56" data-name="Ellipse 56" class="cls-1" cx="13.304" cy="13.304" rx="13.304" ry="13.304" transform="translate(0 23.56)"/>
      <path id="Path_236" data-name="Path 236" class="cls-1" d="M31.781,18l12.75,23.906L27,38.719" transform="translate(12.047 -3.656)"/>
      <path id="Path_237" data-name="Path 237" class="cls-1" d="M17.969,22,10,37.937l20.719-1.594" transform="translate(1.953 -1.281)"/>
    </g>
  </g>
</svg>
